<svg width="76" height="76" fill="none" xmlns="http://www.w3.org/2000/svg"><rect opacity=".137" width="76" height="76" rx="11" fill="#717CFF"/><path d="M36.959 35H23.8v-2.61l6.21-6.619c.852-.931 1.48-1.744 1.885-2.439.413-.694.62-1.353.62-1.977 0-.853-.216-1.52-.646-2.004-.431-.492-1.046-.738-1.846-.738-.861 0-1.543.299-2.044.896-.492.59-.738 1.367-.738 2.334H23.42c0-1.17.277-2.237.83-3.204a5.9 5.9 0 0 1 2.374-2.267c1.02-.554 2.175-.831 3.467-.831 1.977 0 3.511.475 4.6 1.424 1.1.95 1.649 2.29 1.649 4.02 0 .95-.246 1.917-.738 2.901-.493.985-1.336 2.132-2.532 3.441l-4.363 4.601h8.253V35Zm6.222-11.285h2.03c.967 0 1.684-.242 2.15-.725.465-.484.698-1.125.698-1.925 0-.774-.233-1.376-.699-1.806-.457-.43-1.09-.646-1.898-.646-.73 0-1.34.202-1.833.606-.492.396-.738.914-.738 1.556h-3.81c0-1.002.268-1.898.804-2.69.545-.8 1.301-1.423 2.268-1.872.975-.448 2.048-.672 3.217-.672 2.03 0 3.62.488 4.772 1.463 1.151.967 1.727 2.303 1.727 4.008 0 .88-.268 1.688-.804 2.426a5.224 5.224 0 0 1-2.11 1.7c1.082.387 1.886.967 2.413 1.74.536.774.804 1.688.804 2.743 0 1.705-.624 3.072-1.872 4.1-1.239 1.029-2.883 1.543-4.93 1.543-1.916 0-3.485-.506-4.707-1.516-1.213-1.011-1.82-2.347-1.82-4.008h3.81c0 .72.269 1.31.805 1.766.545.457 1.213.686 2.004.686.905 0 1.613-.237 2.122-.712.519-.483.778-1.12.778-1.912 0-1.916-1.054-2.874-3.164-2.874h-2.017v-2.98ZM23.068 59V46.203h4.122c1.131 0 2.148.258 3.05.774a5.34 5.34 0 0 1 2.11 2.17c.51.932.767 1.978.773 3.138v.589c0 1.172-.249 2.224-.747 3.155a5.428 5.428 0 0 1-2.092 2.18c-.896.521-1.898.785-3.006.791h-4.21Zm3.085-10.415v8.042h1.073c.884 0 1.564-.314 2.039-.94.474-.633.712-1.57.712-2.813v-.554c0-1.236-.238-2.168-.712-2.795-.475-.627-1.166-.94-2.075-.94h-1.037Zm13.017 10.59c-1.46 0-2.64-.433-3.542-1.3-.902-.873-1.354-2.007-1.354-3.401v-.246c0-.973.18-1.831.536-2.576a3.955 3.955 0 0 1 1.583-1.722c.691-.41 1.511-.615 2.46-.615 1.337 0 2.391.416 3.165 1.248.773.826 1.16 1.98 1.16 3.462v1.152h-5.889c.105.533.337.952.694 1.257.358.304.82.457 1.39.457.937 0 1.669-.328 2.196-.985l1.354 1.6c-.37.51-.894.917-1.573 1.221-.674.3-1.4.449-2.18.449Zm-.334-7.575c-.867 0-1.383.574-1.547 1.722h2.988v-.228c.012-.475-.108-.841-.36-1.099-.252-.264-.612-.395-1.081-.395Zm9.562 5.29c.416 0 .739-.11.967-.333.229-.229.34-.545.334-.95h2.778c0 1.043-.375 1.899-1.125 2.567-.745.668-1.705 1.002-2.883 1.002-1.383 0-2.473-.434-3.27-1.301-.797-.867-1.195-2.068-1.195-3.603v-.124c0-.96.176-1.807.527-2.54.358-.738.87-1.303 1.538-1.696.668-.398 1.46-.597 2.373-.597 1.237 0 2.218.342 2.945 1.028.726.685 1.09 1.614 1.09 2.786h-2.778c0-.492-.12-.87-.36-1.134-.24-.264-.563-.395-.967-.395-.767 0-1.216.489-1.345 1.467-.04.31-.061.739-.061 1.284 0 .955.114 1.617.343 1.986.228.37.591.554 1.09.554Z" fill="#717CFF"/></svg>