<svg width="76" height="76" fill="none" xmlns="http://www.w3.org/2000/svg"><rect opacity=".137" width="76" height="76" rx="11" fill="#717CFF"/><path d="M33.056 35h-3.81V20.314l-4.548 1.41v-3.098l7.95-2.848h.408V35Zm19.3-17.06L44.936 35h-4.021l7.435-16.11h-9.545v-3.085h13.553v2.135ZM34.82 52.865c0 1.248-.231 2.353-.694 3.314-.463.96-1.122 1.702-1.978 2.223-.85.516-1.819.774-2.909.774-1.09 0-2.056-.25-2.9-.747-.844-.504-1.503-1.222-1.978-2.154-.468-.931-.715-2-.738-3.208v-.72c0-1.254.229-2.359.686-3.314.462-.96 1.122-1.702 1.977-2.223.861-.522 1.84-.783 2.936-.783 1.084 0 2.05.258 2.9.774.85.515 1.509 1.25 1.978 2.206.474.95.715 2.039.72 3.27v.588Zm-3.137-.536c0-1.271-.214-2.235-.642-2.892-.422-.662-1.028-.993-1.82-.993-1.546 0-2.364 1.16-2.451 3.48l-.01.941c0 1.254.209 2.218.625 2.892.416.674 1.034 1.01 1.854 1.01.78 0 1.38-.33 1.802-.993.422-.662.636-1.614.642-2.856v-.589Zm8.613 4.562c.416 0 .738-.112.967-.334.228-.229.34-.545.334-.95h2.777c0 1.043-.375 1.899-1.125 2.567-.744.668-1.705 1.002-2.883 1.002-1.383 0-2.472-.434-3.27-1.301-.796-.867-1.195-2.068-1.195-3.603v-.124c0-.96.176-1.807.528-2.54.357-.738.87-1.303 1.538-1.696.668-.398 1.459-.597 2.373-.597 1.236 0 2.218.342 2.944 1.028.727.685 1.09 1.614 1.09 2.786h-2.777c0-.492-.12-.87-.36-1.134-.24-.264-.563-.395-.968-.395-.767 0-1.215.489-1.344 1.467-.041.31-.062.739-.062 1.284 0 .955.114 1.617.343 1.986.229.37.592.554 1.09.554Zm8.78-9.765v2.364h1.565v2.057h-1.565v4.35c0 .358.065.607.194.748.128.14.383.21.764.21.293 0 .54-.017.739-.052v2.118c-.534.17-1.09.255-1.67.255-1.02 0-1.773-.24-2.26-.72-.486-.481-.729-1.21-.729-2.19v-4.72h-1.213V49.49h1.213v-2.364h2.962Z" fill="#717CFF"/></svg>